<svg width="181" height="28" viewBox="0 0 181 28" fill="none" xmlns="http://www.w3.org/2000/svg">
<path d="M9.19247 18.8104C9.19247 20.4706 1.40042 27 2.11602 27C2.35455 27 13.009 21.3547 19.6084 17.5382C20.32 17.1267 20.5438 16.2006 20.1649 15.4709C19.7155 14.6055 18.2738 14.3872 17.4615 14.9338C17.3722 15.0437 17.266 15.1442 17.1435 15.2324C17.2316 15.1154 17.3395 15.016 17.4615 14.9338C17.8448 14.4626 17.9168 13.8203 17.6206 13.2446C17.247 12.5185 16.3253 12.2207 15.5964 12.5301C15.5029 12.5828 15.409 12.6355 15.3148 12.6881C15.404 12.6242 15.4984 12.5716 15.5964 12.5301C18.355 10.9743 20.8075 9.36297 23.3454 7.44037C23.9146 7.00911 23.7449 6.20357 23.3454 5.61162C22.8776 4.91863 22.0207 4.67094 21.2781 5.05504C18.9723 6.24771 9.73671 13.0061 9.19247 13.0061C8.31785 13.0061 7.28421 11.2569 6.01204 10.3028C5.36618 9.81836 4.58606 9.81234 3.94476 10.3028C3.19825 10.8736 3.0521 11.9444 3.62672 12.6881C4.9784 14.4373 9.19247 17.9358 9.19247 18.8104Z" fill="#FF1956"/>
<path d="M17.1435 15.2324C16.4294 15.7292 15.3148 16.5046 15.3148 16.5046M17.1435 15.2324C17.266 15.1442 17.3722 15.0437 17.4615 14.9338M17.1435 15.2324C17.2316 15.1154 17.3395 15.016 17.4615 14.9338M15.3148 12.6881C14.197 13.4643 12.4524 14.6758 12.4524 14.6758M15.3148 12.6881C15.409 12.6355 15.5029 12.5828 15.5964 12.5301M15.3148 12.6881C15.404 12.6242 15.4984 12.5716 15.5964 12.5301M15.3148 4.25994L16.905 1M12.4524 4.737L10.0671 1.63609M9.431 7.44037L6.25057 6.48624M17.4615 14.9338C18.2738 14.3872 19.7155 14.6055 20.1649 15.4709C20.5438 16.2006 20.32 17.1267 19.6084 17.5382C13.009 21.3547 2.35455 27 2.11602 27C1.40042 27 9.19247 20.4706 9.19247 18.8104C9.19247 17.9358 4.9784 14.4373 3.62672 12.6881C3.0521 11.9444 3.19825 10.8736 3.94476 10.3028C4.58606 9.81234 5.36618 9.81836 6.01204 10.3028C7.28421 11.2569 8.31785 13.0061 9.19247 13.0061C9.73671 13.0061 18.9723 6.24771 21.2781 5.05504C22.0207 4.67094 22.8776 4.91863 23.3454 5.61162C23.7449 6.20357 23.9146 7.00911 23.3454 7.44037C20.8075 9.36297 18.355 10.9743 15.5964 12.5301M17.4615 14.9338C17.8448 14.4626 17.9168 13.8203 17.6206 13.2446C17.247 12.5185 16.3253 12.2207 15.5964 12.5301" stroke="white" stroke-width="0.65" stroke-linejoin="round"/>
<path d="M32.8226 11.5769C32.8226 8.91413 34.7398 7.19221 37.6688 7.19221C40.1895 7.19221 42.16 8.93188 42.2487 11.2396H39.4617C39.3552 10.281 38.6096 9.67745 37.5268 9.67745C36.2842 9.67745 35.5741 10.21 35.5741 11.1686C35.5741 11.9142 35.9824 12.358 36.8877 12.6242L38.7517 13.1745C40.6866 13.7604 41.6097 14.8432 41.6097 16.5651C41.6097 19.1214 39.6747 20.8078 36.7102 20.8078C33.8522 20.8078 32.006 19.2634 31.9172 16.7604H34.7043C34.7575 17.7367 35.5563 18.3225 36.8345 18.3225C38.1126 18.3225 38.8759 17.7722 38.8759 16.8492C38.8759 16.1923 38.5741 15.8728 37.7398 15.6243L35.8226 15.074C33.9054 14.5237 32.8226 13.2633 32.8226 11.5769Z" fill="white"/>
<path d="M67.1784 12.997C67.1784 17.3995 64.1606 20.79 60.1487 20.79C56.7226 20.79 54.4327 18.4646 54.4327 15.0385C54.4327 10.636 57.4327 7.22772 61.4446 7.22772C64.8707 7.22772 67.1784 9.57095 67.1784 12.997ZM64.2139 13.2811C64.2139 11.1686 63.1133 9.92598 61.1961 9.92598C59.0126 9.92598 57.3972 12.0207 57.3972 14.7367C57.3972 16.8136 58.5156 18.074 60.415 18.074C62.5985 18.074 64.2139 15.9793 64.2139 13.2811Z" fill="white"/>
<path d="M80.4284 10.0325L80.8367 7.44074H90.9019L90.4936 10.0325H86.8545L85.1859 20.577H82.4166L84.0853 10.0325H80.4284Z" fill="white"/>
<path d="M95.4179 7.44074L93.341 20.577H90.5717L92.6487 7.44074H95.4179Z" fill="white"/>
<path d="M116.933 9.89047C114.608 9.89047 113.028 11.9319 113.028 14.8432C113.028 16.9202 114.217 18.1628 116.188 18.1628C118.069 18.1628 119.294 17.2042 119.649 15.5H116.188L116.578 13.0503H119.596H122.614L121.424 20.577H119.046L119.099 19.4587C118.442 20.2397 117.128 20.79 115.762 20.79C112.282 20.79 110.063 18.5356 110.063 15.0207C110.063 10.494 113.099 7.22772 117.288 7.22772C120.395 7.22772 122.454 9.02064 122.631 11.9142H119.631C119.383 10.6005 118.495 9.89047 116.933 9.89047Z" fill="white"/>
<path fill-rule="evenodd" clip-rule="evenodd" d="M46.2909 16.1923H48.7229C51.7051 16.1923 53.7643 14.1864 53.7643 11.3106C53.7643 8.94964 52.2022 7.44074 49.7525 7.44074H44.9062L44.5133 9.92598H47.285H49.0246C50.2317 9.92598 50.8886 10.5295 50.8886 11.5946C50.8886 12.9438 50.0187 13.7071 48.5098 13.7071H46.6814H43.9155L42.8293 20.577H45.5985L46.2909 16.1923Z" fill="white"/>
<path fill-rule="evenodd" clip-rule="evenodd" d="M68.122 20.577H70.8913L71.6191 15.9438H73.8381L75.2405 20.577H78.0985L76.4831 15.3403C78.3293 14.4527 79.3411 12.9793 79.3411 11.2396C79.3411 8.91413 77.6902 7.44074 75.0807 7.44074H70.199L69.8168 9.92598H72.5777H74.6369C75.773 9.92598 76.4476 10.494 76.4476 11.4704C76.4476 12.7308 75.5777 13.4941 74.1576 13.4941H72.0096H69.2419L68.122 20.577Z" fill="white"/>
<path d="M100.913 7.44074H98.1614L100.167 12.1272L104.286 20.577H107.037L105.031 15.8906L100.913 7.44074Z" fill="white"/>
<path d="M109.114 7.44074H106.363L105.973 9.91498L108.025 14.3276L109.114 7.44074Z" fill="white"/>
<path d="M108.025 14.3276L105.973 9.91498L105.728 11.4701L107.805 15.7182L108.025 14.3276Z" fill="white"/>
<path d="M96.0845 20.577H98.836L99.5017 16.3521L97.4204 12.1272L96.0845 20.577Z" fill="white"/>
<path d="M144.75 7.44074L142.673 20.577H139.904L141.981 7.44074H144.75Z" fill="#FF1956"/>
<path d="M151.381 20.79C147.76 20.79 145.683 18.3936 145.683 15.0207C145.683 10.4585 148.754 7.22772 152.908 7.22772C156.174 7.22772 158.144 9.18041 158.251 12.0384H155.286C155.073 10.5828 153.991 9.94373 152.553 9.94373C150.138 9.94373 148.647 12.0384 148.647 14.8432C148.647 16.7604 149.695 18.074 151.488 18.074C153.085 18.074 154.168 17.4705 154.772 15.9438H157.825C156.813 19.1214 154.559 20.79 151.381 20.79Z" fill="#FF1956"/>
<path d="M171.035 11.5769C171.035 8.91413 172.952 7.19221 175.881 7.19221C178.401 7.19221 180.372 8.93188 180.461 11.2396H177.674C177.567 10.281 176.822 9.67745 175.739 9.67745C174.496 9.67745 173.786 10.21 173.786 11.1686C173.786 11.9142 174.194 12.358 175.1 12.6242L176.964 13.1745C178.899 13.7604 179.822 14.8432 179.822 16.5651C179.822 19.1214 177.887 20.8078 174.922 20.8078C172.064 20.8078 170.218 19.2634 170.129 16.7604H172.916C172.969 17.7367 173.768 18.3225 175.046 18.3225C176.325 18.3225 177.088 17.7722 177.088 16.8492C177.088 16.1923 176.786 15.8728 175.952 15.6243L174.035 15.074C172.117 14.5237 171.035 13.2633 171.035 11.5769Z" fill="#FF1956"/>
<path fill-rule="evenodd" clip-rule="evenodd" d="M132.01 16.1923H134.442C137.425 16.1923 139.484 14.1864 139.484 11.3106C139.484 8.94963 137.922 7.44074 135.472 7.44074H130.626L130.233 9.92598H133.005H134.744C135.951 9.92598 136.608 10.5295 136.608 11.5946C136.608 12.9438 135.738 13.7071 134.229 13.7071H132.401H129.635L128.549 20.577H131.318L132.01 16.1923Z" fill="#FF1956"/>
<path fill-rule="evenodd" clip-rule="evenodd" d="M163.61 8.97626L163.854 7.44074H161.085L160.307 12.3614L163.61 8.97626ZM162.877 13.5828L159.529 17.282L159.008 20.577H159.909H161.777L162.185 18.0385L164.67 15.287L166.712 20.577H169.783L166.747 13.0148L171.824 7.44074H168.416L162.877 13.5828Z" fill="#FF1956"/>
</svg>
