<?xml version="1.0" encoding="UTF-8" standalone="no"?>
<svg
   width="41"
   height="41"
   viewBox="0 0 41 41"
   fill="none"
   version="1.1"
   id="svg3"
   sodipodi:docname="american-football.svg"
   inkscape:version="1.3 (0e150ed, 2023-07-21)"
   xmlns:inkscape="http://www.inkscape.org/namespaces/inkscape"
   xmlns:sodipodi="http://sodipodi.sourceforge.net/DTD/sodipodi-0.dtd"
   xmlns="http://www.w3.org/2000/svg"
   xmlns:svg="http://www.w3.org/2000/svg">
  <defs
     id="defs3" />
  <sodipodi:namedview
     id="namedview3"
     pagecolor="#ffffff"
     bordercolor="#000000"
     borderopacity="0.25"
     inkscape:showpageshadow="2"
     inkscape:pageopacity="0.0"
     inkscape:pagecheckerboard="0"
     inkscape:deskcolor="#d1d1d1"
     inkscape:zoom="5.7560976"
     inkscape:cx="20.413136"
     inkscape:cy="20.5"
     inkscape:window-width="1312"
     inkscape:window-height="449"
     inkscape:window-x="0"
     inkscape:window-y="383"
     inkscape:window-maximized="0"
     inkscape:current-layer="svg3" />
  <path
     style="color:#000000;fill:#2d2d2d;fill-opacity:0.6;stroke-linejoin:round;-inkscape-stroke:none"
     d="m 24.982422,3.7167969 c -5.485213,0.3556048 -10.791694,2.5872196 -14.761719,6.5507811 -5.2923183,5.283649 -7.5120582,12.94916 -6.3046874,20.25 a 1.0001,1.0001 0 0 0 0.00391,0.01758 c 0.2913624,1.578457 1.0659424,3.042115 2.2128906,4.19336 a 1.0001,1.0001 0 0 0 0.00391,0.0039 c 1.1501536,1.145066 2.6112457,1.918608 4.1875003,2.210937 7.286344,1.391779 15.063475,-0.987118 20.294922,-6.269531 5.342807,-5.256666 7.562687,-12.952762 6.294921,-20.257812 a 1.0001,1.0001 0 0 0 -0.002,-0.01172 C 36.62072,8.8258918 35.846237,7.3622293 34.699219,6.2109375 a 1.0001,1.0001 0 0 0 -0.0039,-0.00195 C 33.543701,5.062376 32.078632,4.2854143 30.5,3.9941406 a 1.0001,1.0001 0 0 0 -0.01563,-0.00195 C 28.659203,3.6882487 26.810826,3.5982619 24.982422,3.7167969 Z m 0.132812,1.9960937 c 1.672638,-0.108997 3.36292,-0.025728 5.033203,0.2519531 1.166342,0.2174156 2.266458,0.7968383 3.132813,1.6582032 0.864929,0.8681516 1.445276,1.9710342 1.662109,3.1406251 1.158037,6.68369 -0.885766,13.724857 -5.730468,18.488281 a 1.0001,1.0001 0 0 0 -0.0098,0.0098 c -4.7423,4.791654 -11.889779,6.982127 -18.503906,5.71875 a 1.0001,1.0001 0 0 0 -0.0059,-0.002 C 9.5216103,34.762174 8.4163717,34.180104 7.546875,33.314453 6.683716,32.446827 6.1052154,31.343951 5.8886719,30.175781 c -2.634e-4,-0.0014 -0.00169,-0.0025 -0.00195,-0.0039 C 4.7878634,23.48958 6.8332679,16.475276 11.632813,11.683594 15.23673,8.085543 20.091496,6.0402614 25.115234,5.7128906 Z"
     id="path1" />
  <path
     style="color:#000000;fill:#2d2d2d;fill-opacity:0.6;stroke-linejoin:round;-inkscape-stroke:none"
     d="M 33.054687,6.4589844 6.3886719,33.126953 7.8027344,34.541016 34.46875,7.8730469 Z"
     id="path2" />
  <path
     style="color:#000000;fill:#2d2d2d;fill-opacity:0.6;stroke-linecap:round;stroke-linejoin:round;-inkscape-stroke:none"
     d="m 20.554687,13.958984 a 1,1 0 0 0 0,1.414063 l 5,5 a 1,1 0 0 0 1.414063,0 1,1 0 0 0 0,-1.414063 l -5,-5 a 1,1 0 0 0 -1.414063,0 z m -5.958984,6.375 a 1,1 0 0 0 -0.707031,0.292969 1,1 0 0 0 0,1.414063 l 5,5 a 1,1 0 0 0 1.414062,0 1,1 0 0 0 0,-1.414063 l -5,-5 a 1,1 0 0 0 -0.707031,-0.292969 z"
     id="path4" />
</svg>
