<?xml version="1.0" encoding="UTF-8" standalone="no"?>
<svg
   width="24"
   height="24"
   viewBox="0 0 24 24"
   fill="none"
   version="1.1"
   id="svg1"
   sodipodi:docname="arrow-up-right.svg"
   inkscape:version="1.3 (0e150ed, 2023-07-21)"
   xmlns:inkscape="http://www.inkscape.org/namespaces/inkscape"
   xmlns:sodipodi="http://sodipodi.sourceforge.net/DTD/sodipodi-0.dtd"
   xmlns="http://www.w3.org/2000/svg"
   xmlns:svg="http://www.w3.org/2000/svg">
  <defs
     id="defs1" />
  <sodipodi:namedview
     id="namedview1"
     pagecolor="#ffffff"
     bordercolor="#000000"
     borderopacity="0.25"
     inkscape:showpageshadow="2"
     inkscape:pageopacity="0.0"
     inkscape:pagecheckerboard="0"
     inkscape:deskcolor="#d1d1d1"
     inkscape:zoom="9.8333333"
     inkscape:cx="11.949153"
     inkscape:cy="12"
     inkscape:window-width="1312"
     inkscape:window-height="449"
     inkscape:window-x="0"
     inkscape:window-y="383"
     inkscape:window-maximized="0"
     inkscape:current-layer="svg1" />
  <path
     style="color:#000000;fill:#2d2d2d;stroke-linecap:round;stroke-linejoin:round;-inkscape-stroke:none"
     d="M 7,6 A 1,1 0 0 0 6,7 1,1 0 0 0 7,8 h 7.585938 l -8.2929693,8.292969 a 1,1 0 0 0 0,1.414062 1,1 0 0 0 1.4140625,0 L 16,9.4140625 V 17 a 1,1 0 0 0 1,1 1,1 0 0 0 1,-1 V 7 A 1,1 0 0 0 17.966797,6.8339844 1,1 0 0 0 17.939453,6.6914062 1,1 0 0 0 17.923828,6.6171875 1,1 0 0 0 17.707031,6.2929687 1,1 0 0 0 17.382812,6.0761719 1,1 0 0 0 17,6 Z"
     id="path1" />
</svg>
