<?xml version="1.0" encoding="UTF-8" standalone="no"?>
<svg
   width="40"
   height="41"
   viewBox="0 0 40 41"
   fill="none"
   version="1.1"
   id="svg3"
   sodipodi:docname="baseball.svg"
   inkscape:version="1.3 (0e150ed, 2023-07-21)"
   xmlns:inkscape="http://www.inkscape.org/namespaces/inkscape"
   xmlns:sodipodi="http://sodipodi.sourceforge.net/DTD/sodipodi-0.dtd"
   xmlns="http://www.w3.org/2000/svg"
   xmlns:svg="http://www.w3.org/2000/svg">
  <defs
     id="defs3" />
  <sodipodi:namedview
     id="namedview3"
     pagecolor="#ffffff"
     bordercolor="#000000"
     borderopacity="0.25"
     inkscape:showpageshadow="2"
     inkscape:pageopacity="0.0"
     inkscape:pagecheckerboard="0"
     inkscape:deskcolor="#d1d1d1"
     inkscape:zoom="5.7560976"
     inkscape:cx="20.065678"
     inkscape:cy="20.5"
     inkscape:window-width="1312"
     inkscape:window-height="449"
     inkscape:window-x="0"
     inkscape:window-y="383"
     inkscape:window-maximized="0"
     inkscape:current-layer="svg3" />
  <path
     style="color:#000000;fill:#2d2d2d;fill-opacity:0.6;stroke-linejoin:round;-inkscape-stroke:none"
     d="M 20,2.8339844 C 10.254869,2.8339844 2.3339844,10.754771 2.3339844,20.5 2.3339844,30.245041 10.254861,38.166016 20,38.166016 29.745139,38.166016 37.666016,30.245045 37.666016,20.5 37.666016,10.754767 29.745131,2.8339844 20,2.8339844 Z m 0,2 c 8.664251,0 15.666016,7.0016666 15.666016,15.6660156 0,8.664137 -7.001773,15.666016 -15.666016,15.666016 C 11.335757,36.166016 4.3339844,29.164141 4.3339844,20.5 4.3339844,11.835648 11.335749,4.8339844 20,4.8339844 Z"
     id="path1" />
  <path
     style="color:#000000;fill:#2d2d2d;fill-opacity:0.6;stroke-linecap:round;stroke-linejoin:round;-inkscape-stroke:none"
     d="m 3.3339844,19.5 a 1,1 0 0 0 -1,1 1,1 0 0 0 1,1 c 0.3236892,0 0.6446698,0.01003 0.9628906,0.0293 a 1,1 0 0 0 1.0585937,-0.9375 1,1 0 0 0 -0.9375,-1.058594 C 4.0591502,19.511474 3.6976344,19.5 3.3339844,19.5 Z m 5.9003906,1.009766 a 1,1 0 0 0 -1.2773438,0.609375 1,1 0 0 0 0.6093751,1.27539 c 0.5237779,0.185604 1.0348811,0.398729 1.5312497,0.636719 a 1,1 0 0 0 1.333985,-0.46875 1,1 0 0 0 -0.46875,-1.333984 c -0.56023,-0.26861 -1.137595,-0.509354 -1.728516,-0.71875 z m 5.189453,3.263671 a 1,1 0 0 0 -0.691406,0.330079 1,1 0 0 0 0.07422,1.412109 c 0.407208,0.366403 0.796882,0.753276 1.164062,1.160156 a 1,1 0 0 0 1.412109,0.07422 1,1 0 0 0 0.07227,-1.414063 c -0.413419,-0.458118 -0.851556,-0.893644 -1.310547,-1.30664 a 1,1 0 0 0 -0.720703,-0.25586 z m 4.316406,5.322266 a 1,1 0 0 0 -0.765625,0.03906 1,1 0 0 0 -0.476562,1.330078 c 0.218264,0.460978 0.416523,0.934173 0.589844,1.417968 a 1,1 0 0 0 1.277343,0.605469 1,1 0 0 0 0.605469,-1.279297 c -0.195679,-0.546203 -0.418127,-1.080188 -0.664062,-1.599609 a 1,1 0 0 0 -0.566407,-0.513672 z m 1.179688,6.146484 a 1,1 0 0 0 -0.94336,1.052735 C 18.992364,36.583212 19,36.873554 19,37.166016 a 1,1 0 0 0 1,1 1,1 0 0 0 1,-1 c 0,-0.328938 -0.0095,-0.65576 -0.02734,-0.980469 a 1,1 0 0 0 -1.052734,-0.94336 z"
     id="path2" />
  <path
     style="color:#000000;fill:#2d2d2d;fill-opacity:0.6;stroke-linecap:round;stroke-linejoin:round;-inkscape-stroke:none"
     d="m 20,2.8339844 a 1,1 0 0 0 -1,1 c 0,0.3288345 0.0095,0.6558367 0.02734,0.9804687 a 1,1 0 0 0 1.052734,0.9433594 1,1 0 0 0 0.943359,-1.0527344 C 21.007638,4.4169307 21,4.1263292 21,3.8339844 a 1,1 0 0 0 -1,-1 z m 0.634766,5.6777344 a 1,1 0 0 0 -0.605469,1.2792968 c 0.195684,0.5462704 0.417975,1.0800924 0.664062,1.5996094 A 1,1 0 0 0 22.025391,11.865234 1,1 0 0 0 22.5,10.533203 C 22.281687,10.072321 22.085425,9.6010162 21.912109,9.1171875 A 1,1 0 0 0 20.634766,8.5117188 Z m 3.705078,5.4824222 A 1,1 0 0 0 23.617187,14.25 a 1,1 0 0 0 -0.07227,1.414063 c 0.413624,0.458451 0.85174,0.893809 1.310547,1.30664 a 1,1 0 0 0 1.412109,-0.07422 1,1 0 0 0 -0.07422,-1.412109 c -0.407392,-0.366568 -0.797087,-0.753409 -1.164062,-1.160156 a 1,1 0 0 0 -0.689453,-0.330078 z m 4.798828,3.933593 a 1,1 0 0 0 -0.570313,0.509766 1,1 0 0 0 0.46875,1.333984 c 0.560204,0.268597 1.137639,0.509351 1.728516,0.71875 a 1,1 0 0 0 1.277344,-0.609375 1,1 0 0 0 -0.609375,-1.27539 c -0.523722,-0.185601 -1.034855,-0.398716 -1.53125,-0.636719 a 1,1 0 0 0 -0.763672,-0.04102 z m 6.564453,1.542969 a 1,1 0 0 0 -1.058594,0.9375 1,1 0 0 0 0.9375,1.058594 c 0.358685,0.02172 0.720112,0.0332 1.083985,0.0332 a 1,1 0 0 0 1,-1 1,1 0 0 0 -1,-1 c -0.323527,0 -0.644377,-0.01001 -0.962891,-0.0293 z"
     id="path3" />
</svg>
