<?xml version="1.0" encoding="UTF-8" standalone="no"?>
<svg
   width="41"
   height="41"
   viewBox="0 0 41 41"
   fill="none"
   version="1.1"
   id="svg4"
   sodipodi:docname="basketball.svg"
   inkscape:version="1.3 (0e150ed, 2023-07-21)"
   xmlns:inkscape="http://www.inkscape.org/namespaces/inkscape"
   xmlns:sodipodi="http://sodipodi.sourceforge.net/DTD/sodipodi-0.dtd"
   xmlns="http://www.w3.org/2000/svg"
   xmlns:svg="http://www.w3.org/2000/svg">
  <defs
     id="defs4" />
  <sodipodi:namedview
     id="namedview4"
     pagecolor="#ffffff"
     bordercolor="#000000"
     borderopacity="0.25"
     inkscape:showpageshadow="2"
     inkscape:pageopacity="0.0"
     inkscape:pagecheckerboard="0"
     inkscape:deskcolor="#d1d1d1"
     inkscape:zoom="5.7560976"
     inkscape:cx="20.413136"
     inkscape:cy="20.5"
     inkscape:window-width="1312"
     inkscape:window-height="449"
     inkscape:window-x="0"
     inkscape:window-y="383"
     inkscape:window-maximized="0"
     inkscape:current-layer="svg4" />
  <path
     style="color:#000000;fill:#2d2d2d;fill-opacity:0.6;stroke-linecap:round;stroke-linejoin:round;-inkscape-stroke:none"
     d="m 20.714844,2.8339844 c -9.745225,0 -17.667969,7.9207906 -17.667969,17.6660156 0,9.745037 7.922736,17.666016 17.667969,17.666016 9.745044,0 17.666015,-7.920971 17.666015,-17.666016 0,-9.745233 -7.920979,-17.6660156 -17.666015,-17.6660156 z m 0,2 c 8.664145,0 15.666015,7.0016666 15.666015,15.6660156 0,8.664137 -7.001878,15.666016 -15.666015,15.666016 -8.664349,0 -15.667969,-7.001871 -15.667969,-15.666016 0,-8.664357 7.003612,-15.6660156 15.667969,-15.6660156 z"
     id="path1" />
  <path
     style="color:#000000;fill:#2d2d2d;fill-opacity:0.6;stroke-linejoin:round;-inkscape-stroke:none"
     d="M 23.292969,3.734375 21.302734,3.9316406 C 22.251036,13.483348 13.74874,22.043142 4.1464844,21.089844 L 3.9492188,23.080078 C 14.830722,24.160378 24.368265,14.565227 23.292969,3.734375 Z"
     id="path5" />
  <path
     style="color:#000000;fill:#2d2d2d;fill-opacity:0.6;stroke-linejoin:round;-inkscape-stroke:none"
     d="M 37.482422,17.921875 C 26.651647,16.846577 17.05642,26.385965 18.136719,37.267578 l 1.990234,-0.197266 C 19.173654,27.467946 27.733552,18.96381 37.285156,19.912109 Z"
     id="path3" />
  <path
     style="color:#000000;fill:#2d2d2d;fill-opacity:0.6;stroke-linecap:round;stroke-linejoin:round;-inkscape-stroke:none"
     d="m 7.3808594,11.166016 a 1,1 0 0 0 -1,1 1,1 0 0 0 1,1 c 11.4257496,0 20.6660156,9.242219 20.6660156,20.667968 a 1,1 0 0 0 1,1 1,1 0 0 0 1,-1 c 0,-12.506626 -10.159389,-22.667968 -22.6660156,-22.667968 z"
     id="path4" />
</svg>
