<?xml version="1.0" encoding="UTF-8" standalone="no"?>
<svg
   width="20"
   height="20"
   viewBox="0 0 20 20"
   fill="none"
   version="1.1"
   id="svg3"
   sodipodi:docname="chart-average.svg"
   inkscape:version="1.3 (0e150ed, 2023-07-21)"
   xmlns:inkscape="http://www.inkscape.org/namespaces/inkscape"
   xmlns:sodipodi="http://sodipodi.sourceforge.net/DTD/sodipodi-0.dtd"
   xmlns="http://www.w3.org/2000/svg"
   xmlns:svg="http://www.w3.org/2000/svg">
  <defs
     id="defs3" />
  <sodipodi:namedview
     id="namedview3"
     pagecolor="#ffffff"
     bordercolor="#000000"
     borderopacity="0.25"
     inkscape:showpageshadow="2"
     inkscape:pageopacity="0.0"
     inkscape:pagecheckerboard="0"
     inkscape:deskcolor="#d1d1d1"
     inkscape:zoom="11.8"
     inkscape:cx="9.9576271"
     inkscape:cy="10"
     inkscape:window-width="1312"
     inkscape:window-height="449"
     inkscape:window-x="0"
     inkscape:window-y="383"
     inkscape:window-maximized="0"
     inkscape:current-layer="svg3" />
  <path
     style="color:#000000;fill:#5d4902;stroke-linecap:round;stroke-linejoin:round;-inkscape-stroke:none"
     d="M 2.5,1.875 A 0.625,0.625 0 0 0 1.875,2.5 v 15 A 0.6250625,0.6250625 0 0 0 2.5,18.125 h 15 A 0.625,0.625 0 0 0 18.125,17.5 0.625,0.625 0 0 0 17.5,16.875 H 3.125 V 2.5 A 0.625,0.625 0 0 0 2.5,1.875 Z"
     id="path1" />
  <path
     style="color:#000000;fill:#5d4902;stroke-linecap:round;stroke-linejoin:round;-inkscape-stroke:none"
     d="M 5,9.375 A 0.625,0.625 0 0 0 4.375,10 0.625,0.625 0 0 0 5,10.625 h 0.00781 a 0.625,0.625 0 0 0 0.625,-0.625 0.625,0.625 0 0 0 -0.625,-0.625 z m 2.4980469,0 a 0.625,0.625 0 0 0 -0.625,0.625 0.625,0.625 0 0 0 0.625,0.625 h 0.00781 a 0.625,0.625 0 0 0 0.625,-0.625 0.625,0.625 0 0 0 -0.625,-0.625 z m 2.4980469,0 a 0.625,0.625 0 0 0 -0.625,0.625 0.625,0.625 0 0 0 0.625,0.625 h 0.00781 a 0.625,0.625 0 0 0 0.625,-0.625 0.625,0.625 0 0 0 -0.625,-0.625 z m 2.5000002,0 a 0.625,0.625 0 0 0 -0.625,0.625 0.625,0.625 0 0 0 0.625,0.625 h 0.0078 a 0.625,0.625 0 0 0 0.625,-0.625 0.625,0.625 0 0 0 -0.625,-0.625 z m 2.498047,0 a 0.625,0.625 0 0 0 -0.625,0.625 0.625,0.625 0 0 0 0.625,0.625 h 0.0078 a 0.625,0.625 0 0 0 0.625,-0.625 0.625,0.625 0 0 0 -0.625,-0.625 z m 2.498046,0 a 0.625,0.625 0 0 0 -0.625,0.625 0.625,0.625 0 0 0 0.625,0.625 H 17.5 A 0.625,0.625 0 0 0 18.125,10 0.625,0.625 0 0 0 17.5,9.375 Z"
     id="path2" />
  <path
     style="color:#000000;fill:#5d4902;stroke-linecap:round;stroke-linejoin:round;-inkscape-stroke:none"
     d="m 7.4941406,3.5410156 c -1.4318041,0 -2.4137888,0.9457045 -3.0292969,1.9707031 A 0.625,0.625 0 0 0 4.6777344,6.3691406 0.625,0.625 0 0 0 5.5351562,6.1542969 C 6.042107,5.3100774 6.5831071,4.7910156 7.4941406,4.7910156 c 1.0278165,0 1.5135615,0.4244864 1.9648438,1.2402344 0.4512823,0.815748 0.7381736,2.025752 1.0332036,3.2792969 0.295029,1.2535451 0.59818,2.5527881 1.238281,3.6152341 0.640101,1.062446 1.727665,1.865235 3.253906,1.865235 1.440047,0 2.417394,-0.949482 3.046875,-1.960938 A 0.625,0.625 0 0 0 17.830078,11.96875 0.625,0.625 0 0 0 16.96875,12.169922 c -0.527718,0.847942 -1.064825,1.371094 -1.984375,1.371094 -1.134791,0 -1.694052,-0.44722 -2.183594,-1.259766 C 12.31124,11.468704 12.002343,10.269883 11.708984,9.0234375 11.415626,7.7769924 11.138722,6.4850257 10.552734,5.4257812 9.9667468,4.3665368 8.9426116,3.5410156 7.4941406,3.5410156 Z"
     id="path3" />
</svg>
