<?xml version="1.0" encoding="UTF-8" standalone="no"?>
<svg
   width="24"
   height="25"
   viewBox="0 0 24 25"
   fill="none"
   version="1.1"
   id="svg2"
   sodipodi:docname="circle-arrow-right.svg"
   inkscape:version="1.3 (0e150ed, 2023-07-21)"
   xmlns:inkscape="http://www.inkscape.org/namespaces/inkscape"
   xmlns:sodipodi="http://sodipodi.sourceforge.net/DTD/sodipodi-0.dtd"
   xmlns="http://www.w3.org/2000/svg"
   xmlns:svg="http://www.w3.org/2000/svg">
  <defs
     id="defs2" />
  <sodipodi:namedview
     id="namedview2"
     pagecolor="#ffffff"
     bordercolor="#000000"
     borderopacity="0.25"
     inkscape:showpageshadow="2"
     inkscape:pageopacity="0.0"
     inkscape:pagecheckerboard="0"
     inkscape:deskcolor="#d1d1d1"
     inkscape:zoom="9.44"
     inkscape:cx="12.023305"
     inkscape:cy="12.5"
     inkscape:window-width="1312"
     inkscape:window-height="449"
     inkscape:window-x="0"
     inkscape:window-y="383"
     inkscape:window-maximized="0"
     inkscape:current-layer="svg2" />
  <path
     style="color:#000000;fill:#2d2d2d;stroke-linecap:round;stroke-linejoin:round;-inkscape-stroke:none"
     d="M 12,1.75 C 6.0718263,1.75 1.25,6.5718263 1.25,12.5 1.25,18.428127 6.0718217,23.25 12,23.25 17.928132,23.25 22.75,18.428132 22.75,12.5 22.75,6.5718217 17.928127,1.75 12,1.75 Z m 0,1.5 c 5.117462,0 9.25,4.1324893 9.25,9.25 0,5.117457 -4.132543,9.25 -9.25,9.25 -5.1175107,0 -9.25,-4.132538 -9.25,-9.25 0,-5.1175152 4.1324848,-9.25 9.25,-9.25 z"
     id="path1" />
  <path
     style="color:#000000;fill:#2d2d2d;stroke-linecap:round;stroke-linejoin:round;-inkscape-stroke:none"
     d="M 10.005859,7.9355469 A 0.75,0.75 0 0 0 9.9355469,8.9941406 L 13.003906,12.5 9.9355469,16.005859 a 0.75,0.75 0 0 0 0.070312,1.058594 0.75,0.75 0 0 0 1.058594,-0.07031 l 3.5,-4 a 0.750075,0.750075 0 0 0 0,-0.988282 l -3.5,-3.9999996 a 0.75,0.75 0 0 0 -1.058594,-0.070312 z"
     id="path2" />
</svg>
