<?xml version="1.0" encoding="UTF-8" standalone="no"?>
<svg
   width="21"
   height="20"
   viewBox="0 0 21 20"
   fill="none"
   version="1.1"
   id="svg2"
   sodipodi:docname="clock.svg"
   inkscape:version="1.3 (0e150ed, 2023-07-21)"
   xmlns:inkscape="http://www.inkscape.org/namespaces/inkscape"
   xmlns:sodipodi="http://sodipodi.sourceforge.net/DTD/sodipodi-0.dtd"
   xmlns="http://www.w3.org/2000/svg"
   xmlns:svg="http://www.w3.org/2000/svg">
  <defs
     id="defs2" />
  <sodipodi:namedview
     id="namedview2"
     pagecolor="#ffffff"
     bordercolor="#000000"
     borderopacity="0.25"
     inkscape:showpageshadow="2"
     inkscape:pageopacity="0.0"
     inkscape:pagecheckerboard="0"
     inkscape:deskcolor="#d1d1d1"
     inkscape:zoom="11.8"
     inkscape:cx="10.466102"
     inkscape:cy="10"
     inkscape:window-width="1312"
     inkscape:window-height="449"
     inkscape:window-x="0"
     inkscape:window-y="383"
     inkscape:window-maximized="0"
     inkscape:current-layer="svg2" />
  <path
     style="color:#000000;fill:#2d2d2d;-inkscape-stroke:none"
     d="M 10.333984,1.1660156 C 5.461428,1.1660156 1.5,5.1274053 1.5,10 c 0,4.872557 3.9614244,8.833984 8.833984,8.833984 4.872617,0 8.832032,-3.961424 8.832032,-8.833984 0,-4.8725976 -3.959419,-8.8339844 -8.832032,-8.8339844 z m 0,1 c 4.332178,0 7.832032,3.5018312 7.832032,7.8339844 0,4.332111 -3.499857,7.833984 -7.832032,7.833984 C 6.0018736,17.833984 2.5,14.332114 2.5,10 2.5,5.6678439 6.0018699,2.1660156 10.333984,2.1660156 Z"
     id="path1" />
  <path
     style="color:#000000;fill:#2d2d2d;stroke-linecap:round;stroke-linejoin:round;-inkscape-stroke:none"
     d="m 10.333984,6.1660156 a 0.5,0.5 0 0 0 -0.4999996,0.5 V 10 a 0.50005,0.50005 0 0 0 0.1464844,0.353516 l 1.6660152,1.666015 a 0.5,0.5 0 0 0 0.707032,0 0.5,0.5 0 0 0 0,-0.707031 L 10.833984,9.7929688 V 6.6660156 a 0.5,0.5 0 0 0 -0.5,-0.5 z"
     id="path2" />
</svg>
