<?xml version="1.0" encoding="UTF-8" standalone="no"?>
<svg
   width="41"
   height="40"
   viewBox="0 0 41 40"
   fill="none"
   version="1.1"
   id="svg2"
   sodipodi:docname="fire-icon.svg"
   inkscape:version="1.3 (0e150ed, 2023-07-21)"
   xmlns:inkscape="http://www.inkscape.org/namespaces/inkscape"
   xmlns:sodipodi="http://sodipodi.sourceforge.net/DTD/sodipodi-0.dtd"
   xmlns="http://www.w3.org/2000/svg"
   xmlns:svg="http://www.w3.org/2000/svg">
  <defs
     id="defs2" />
  <sodipodi:namedview
     id="namedview2"
     pagecolor="#ffffff"
     bordercolor="#000000"
     borderopacity="0.25"
     inkscape:showpageshadow="2"
     inkscape:pageopacity="0.0"
     inkscape:pagecheckerboard="0"
     inkscape:deskcolor="#d1d1d1"
     inkscape:zoom="5.9"
     inkscape:cx="20.423729"
     inkscape:cy="20"
     inkscape:window-width="1312"
     inkscape:window-height="449"
     inkscape:window-x="209"
     inkscape:window-y="545"
     inkscape:window-maximized="0"
     inkscape:current-layer="svg2" />
  <path
     style="color:#000000;fill:#ffffff;stroke-linejoin:round;-inkscape-stroke:none"
     d="m 18.035156,2.4140625 a 1.0001,1.0001 0 0 0 -1.392578,0.9199219 c 0,3.7666399 -2.24446,6.2061013 -4.759765,9.1406246 -2.5153061,2.934524 -5.2402349,6.358079 -5.2402349,11.691407 0,7.443941 6.0560569,13.5 13.4999999,13.5 7.443943,0 13.5,-6.056057 13.5,-13.5 0,-1.666599 -0.05691,-5.42126 -3.552734,-9.791016 a 1.0001,1.0001 0 0 0 -1.779297,0.589844 c 0,0 -0.05486,1.05796 -0.419922,1.947265 -0.182532,0.444653 -0.43372,0.808142 -0.699219,1.001953 -0.265499,0.193812 -0.537819,0.300195 -1.132812,0.175782 C 25.567916,17.987253 25.329852,17.825082 25.134766,17.595703 24.939679,17.366324 24.782871,17.01856 24.675781,16.517578 24.461602,15.515614 24.496709,13.987712 24.410156,12.296875 24.323603,10.606038 24.096075,8.7205319 23.183594,6.9394531 22.271113,5.1583744 20.652533,3.5329485 18.035156,2.4140625 Z m 0.365235,2.5488281 c 1.428587,0.8470018 2.447325,1.8022768 3.003906,2.8886719 0.71028,1.3864006 0.926816,2.9645795 1.007812,4.5468755 0.081,1.582295 0.0072,3.136317 0.306641,4.537109 0.149716,0.700396 0.406604,1.383679 0.892578,1.955078 0.485974,0.571399 1.197313,0.980666 2.037109,1.15625 1.050155,0.219587 2.031635,-0.01119 2.722657,-0.515625 0.691022,-0.504438 1.098886,-1.201029 1.36914,-1.859375 0.03201,-0.07798 0.0047,-0.07852 0.0332,-0.15625 1.796246,2.985386 1.869141,5.267999 1.869141,6.650391 0,6.363043 -5.136957,11.5 -11.5,11.5 -6.363043,0 -11.4999999,-5.136955 -11.4999999,-11.5 0,-4.666663 2.2750859,-7.491832 4.7597659,-10.390625 2.163509,-2.524095 4.421693,-5.171994 4.998047,-8.8125004 z"
     id="path1" />
  <g
     id="path2">
    <path
       style="color:#000000;fill:#ffffff;stroke-linejoin:round;-inkscape-stroke:none"
       d="m 20.1429,31.6685 c 3.2217,0 5.8333,-3.3579 5.8333,-7.5 -5.3333,2 -7.2221,-2.6054 -7.5,-5.8352 -2.4095,0.922 -4.1666,4.7093 -4.1666,6.6667 0,4.1421 2.6116,6.6685 5.8333,6.6685 z"
       id="path6" />
    <path
       style="color:#000000;fill:#ffffff;stroke-linejoin:round;-inkscape-stroke:none"
       d="m 18.119141,17.398437 c -1.555812,0.595335 -2.688235,1.954136 -3.5,3.386719 C 13.807375,22.21774 13.310547,23.722078 13.310547,25 c 0,4.56243 3.087547,7.667969 6.832031,7.667969 1.958273,0 3.707116,-1.030219 4.914063,-2.582032 1.206946,-1.551812 1.919922,-3.636753 1.919921,-5.917968 A 1.0001,1.0001 0 0 0 25.625,23.232422 c -2.394023,0.897764 -3.607542,0.359455 -4.550781,-0.689453 -0.94324,-1.048908 -1.475721,-2.832367 -1.601563,-4.294922 a 1.0001,1.0001 0 0 0 -1.353515,-0.84961 z m -0.310547,2.59961 c 0.296342,1.365048 0.768084,2.760488 1.777343,3.882812 1.143265,1.271341 2.968643,1.952784 5.185547,1.589844 -0.209243,1.308461 -0.614596,2.514512 -1.292968,3.386719 -0.904277,1.16266 -2.072514,1.810547 -3.335938,1.810547 -2.698909,0 -4.832031,-1.946207 -4.832031,-5.667969 0,-0.679476 0.37967,-2.047602 1.048828,-3.228516 0.406674,-0.717687 0.919352,-1.300926 1.449219,-1.773437 z"
       id="path5" />
  </g>
</svg>
