<?xml version="1.0" encoding="UTF-8" standalone="no"?>
<svg
   width="41"
   height="41"
   viewBox="0 0 41 41"
   fill="none"
   version="1.1"
   id="svg4"
   sodipodi:docname="football.svg"
   inkscape:version="1.3 (0e150ed, 2023-07-21)"
   xmlns:inkscape="http://www.inkscape.org/namespaces/inkscape"
   xmlns:sodipodi="http://sodipodi.sourceforge.net/DTD/sodipodi-0.dtd"
   xmlns="http://www.w3.org/2000/svg"
   xmlns:svg="http://www.w3.org/2000/svg">
  <defs
     id="defs4" />
  <sodipodi:namedview
     id="namedview4"
     pagecolor="#ffffff"
     bordercolor="#000000"
     borderopacity="0.25"
     inkscape:showpageshadow="2"
     inkscape:pageopacity="0.0"
     inkscape:pagecheckerboard="0"
     inkscape:deskcolor="#d1d1d1"
     inkscape:zoom="5.7560976"
     inkscape:cx="20.413136"
     inkscape:cy="20.5"
     inkscape:window-width="1312"
     inkscape:window-height="449"
     inkscape:window-x="0"
     inkscape:window-y="383"
     inkscape:window-maximized="0"
     inkscape:current-layer="svg4" />
  <path
     style="color:#000000;fill:#2d2d2d;fill-opacity:0.6;-inkscape-stroke:none"
     d="m 20.572266,2.8339844 c -9.745131,0 -17.6679691,7.9207876 -17.6679691,17.6660156 0,9.74504 7.9228301,17.666016 17.6679691,17.666016 9.745138,0 17.666015,-7.920971 17.666015,-17.666016 0,-9.745233 -7.920885,-17.6660156 -17.666015,-17.6660156 z m 0,2 c 8.66425,0 15.666015,7.0016666 15.666015,15.6660156 0,8.664137 -7.001773,15.666016 -15.666015,15.666016 -8.664243,0 -15.6679691,-7.001874 -15.6679691,-15.666016 0,-8.664354 7.0037181,-15.6660156 15.6679691,-15.6660156 z"
     id="path1" />
  <path
     style="color:#000000;fill:#2d2d2d;fill-opacity:0.6;-inkscape-stroke:none"
     d="m 20.572266,14.921875 c -0.38615,0 -0.773346,0.122223 -1.091797,0.363281 l -3.753906,2.841797 c -0.636901,0.482062 -0.886718,1.306655 -0.652344,2.058594 l 1.433593,4.599609 c 0.234695,0.751869 0.937788,1.298828 1.744141,1.298828 h 4.640625 c 0.806353,0 1.507493,-0.546959 1.742188,-1.298828 l 1.433593,-4.599609 c 0.234446,-0.751495 -0.01629,-1.576442 -0.652343,-2.058594 l -3.753907,-2.841797 c -0.318451,-0.241058 -0.703694,-0.363281 -1.089843,-0.363281 z m -0.002,2.044922 3.566407,2.699219 -1.376953,4.417968 h -4.375 l -1.376954,-4.419922 z"
     id="path2" />
  <path
     style="color:#000000;fill:#2d2d2d;fill-opacity:0.6;stroke-linejoin:round;-inkscape-stroke:none"
     d="M 19.572266,8.8339844 V 15.5 h 2 V 8.8339844 Z m 12.314453,6.5624996 -6.666016,2.5 0.703125,1.873047 6.666016,-2.5 z m -22.7382815,1.632813 -0.4863281,1.941406 6.6679686,1.666016 0.484375,-1.939453 z m 7.3085935,7.011719 -3.332031,4.167968 1.560547,1.248047 3.333984,-4.166015 z m 8.28125,0.904296 -1.664062,1.109375 3.332031,5 1.664062,-1.109375 z"
     id="path3" />
  <path
     style="color:#000000;fill:#2d2d2d;fill-opacity:0.6;stroke-linejoin:round;-inkscape-stroke:none"
     d="m 16.146484,3.8496094 -1.15039,1.6347656 5.027343,3.5371094 a 1.0001,1.0001 0 0 0 1.15625,-0.00195 L 26.152344,5.4824219 24.992187,3.8515625 20.595703,6.9785156 Z m 16.875,6.6191406 -2.042968,5.322266 a 1.0001,1.0001 0 0 0 0.33789,1.162109 l 5.328125,3.935547 1.1875,-1.609375 -4.714844,-3.482422 1.771485,-4.611328 z M 7.4121094,11.296875 5.5820312,12.105469 7.9941406,17.568359 3.3105469,21.029297 4.5,22.636719 9.8261719,18.703125 a 1.0001,1.0001 0 0 0 0.3222661,-1.208984 z m 6.5683596,16.814453 -6.7480471,0.07227 0.021484,2 5.7265628,-0.06055 -0.05859,6.042969 2,0.01953 0.06836,-7.064453 a 1.0001,1.0001 0 0 0 -1.009765,-1.009766 z m 12.796875,1.664063 a 1.0001,1.0001 0 0 0 -1.123047,0.652343 l -2.25,6.408203 1.886719,0.66211 1.96875,-5.603516 5.583984,1.011719 0.357422,-1.96875 z"
     id="path4" />
</svg>
