<?xml version="1.0" encoding="UTF-8" standalone="no"?>
<svg
   width="24"
   height="24"
   viewBox="0 0 24 24"
   fill="none"
   version="1.1"
   id="svg2"
   sodipodi:docname="golf-hole.svg"
   inkscape:version="1.3 (0e150ed, 2023-07-21)"
   xmlns:inkscape="http://www.inkscape.org/namespaces/inkscape"
   xmlns:sodipodi="http://sodipodi.sourceforge.net/DTD/sodipodi-0.dtd"
   xmlns="http://www.w3.org/2000/svg"
   xmlns:svg="http://www.w3.org/2000/svg">
  <defs
     id="defs2" />
  <sodipodi:namedview
     id="namedview2"
     pagecolor="#ffffff"
     bordercolor="#000000"
     borderopacity="0.25"
     inkscape:showpageshadow="2"
     inkscape:pageopacity="0.0"
     inkscape:pagecheckerboard="0"
     inkscape:deskcolor="#d1d1d1"
     inkscape:zoom="9.8333333"
     inkscape:cx="11.949153"
     inkscape:cy="12"
     inkscape:window-width="1312"
     inkscape:window-height="449"
     inkscape:window-x="0"
     inkscape:window-y="179"
     inkscape:window-maximized="0"
     inkscape:current-layer="svg2" />
  <path
     style="color:#000000;fill:#2d2d2d;stroke-linecap:round;stroke-linejoin:round;-inkscape-stroke:none"
     d="M 7.8632812,16.261719 C 6.6037671,16.494201 5.5300948,16.871332 4.7167969,17.367187 3.9034989,17.863043 3.25,18.523589 3.25,19.427734 c 0,0.650632 0.383852,1.191922 0.8671875,1.583985 0.4833355,0.392062 1.1019408,0.691527 1.8359375,0.943359 C 7.4211183,22.458742 9.3593968,22.75 11.5,22.75 c 2.140584,0 4.078878,-0.291258 5.546875,-0.794922 0.733999,-0.251832 1.352599,-0.551298 1.835937,-0.943359 C 19.366151,20.619657 19.75,20.07837 19.75,19.427734 c 0,-0.904145 -0.653095,-1.565283 -1.466797,-2.0625 -0.813701,-0.497216 -1.887507,-0.874853 -3.148437,-1.103515 a 0.75,0.75 0 0 0 -0.873047,0.603515 0.75,0.75 0 0 0 0.603515,0.873047 c 1.117967,0.202737 2.045147,0.544767 2.636719,0.90625 0.591572,0.361483 0.748047,0.69995 0.748047,0.783203 0,0.05991 -0.03679,0.194328 -0.3125,0.417969 -0.275708,0.223641 -0.753716,0.477576 -1.376953,0.691406 C 15.314072,20.96477 13.501512,21.25 11.5,21.25 9.4984673,21.25 7.6859221,20.964769 6.4394531,20.537109 5.8162187,20.323279 5.3382044,20.069343 5.0625,19.845703 4.7867956,19.622063 4.75,19.487652 4.75,19.427734 c 0,-0.08325 0.1560712,-0.418378 0.7480469,-0.779297 0.5919756,-0.360918 1.5192884,-0.703539 2.6386719,-0.910156 a 0.75,0.75 0 0 0 0.6015625,-0.875 0.75,0.75 0 0 0 -0.8750001,-0.601562 z"
     id="path1" />
  <path
     style="color:#000000;fill:#2d2d2d;stroke-linecap:round;stroke-linejoin:round;-inkscape-stroke:none"
     d="m 12.796875,2.0527344 c -1.134578,-0.5682969 -2.531154,0.2935777 -2.533203,1.5625 L 10.25,11.998047 a 0.75,0.75 0 0 0 0,0.002 v 7 A 0.75,0.75 0 0 0 11,19.75 0.75,0.75 0 0 0 11.75,19 V 12.421875 L 18.853516,8.0800781 C 19.992663,7.3840084 19.918194,5.6192966 18.724609,5.0214844 Z M 12.125,3.3945313 18.052734,6.3632812 c 0.210415,0.1053871 0.21843,0.3147706 0.01758,0.4375 l -6.318359,3.8593748 0.01172,-7.0429685 C 11.764022,3.4000912 11.93098,3.2973488 12.125,3.3945313 Z"
     id="path2" />
</svg>
