<?xml version="1.0" encoding="UTF-8" standalone="no"?>
<svg
   width="41"
   height="41"
   viewBox="0 0 41 41"
   fill="none"
   version="1.1"
   id="svg3"
   sodipodi:docname="hockey.svg"
   inkscape:version="1.3 (0e150ed, 2023-07-21)"
   xmlns:inkscape="http://www.inkscape.org/namespaces/inkscape"
   xmlns:sodipodi="http://sodipodi.sourceforge.net/DTD/sodipodi-0.dtd"
   xmlns="http://www.w3.org/2000/svg"
   xmlns:svg="http://www.w3.org/2000/svg">
  <defs
     id="defs3" />
  <sodipodi:namedview
     id="namedview3"
     pagecolor="#ffffff"
     bordercolor="#000000"
     borderopacity="0.25"
     inkscape:showpageshadow="2"
     inkscape:pageopacity="0.0"
     inkscape:pagecheckerboard="0"
     inkscape:deskcolor="#d1d1d1"
     inkscape:zoom="5.7560976"
     inkscape:cx="20.413136"
     inkscape:cy="20.5"
     inkscape:window-width="1312"
     inkscape:window-height="449"
     inkscape:window-x="0"
     inkscape:window-y="383"
     inkscape:window-maximized="0"
     inkscape:current-layer="svg3" />
  <path
     style="color:#000000;fill:#2d2d2d;fill-opacity:0.6;stroke-linejoin:round;-inkscape-stroke:none"
     d="M 32.541016,2.9140625 C 31.814989,3.0834546 31.152155,3.5115233 30.710937,4.1699219 L 13.808594,29.390625 c -0.330023,0.492485 -1.054592,0.672656 -1.617188,0.363281 -0.432106,-0.237552 -0.470229,-0.378423 -0.501953,-0.677734 -0.03172,-0.299311 0.06856,-0.786081 0.269531,-1.296875 a 1.0001,1.0001 0 0 0 0,-0.002 C 12.580351,26.197849 11.888527,24.395596 10.394531,23.574219 9.4373032,23.048006 8.3636247,23.009355 7.4746094,23.339844 6.585594,23.670333 5.8692784,24.322678 5.3828125,25.125 2.838984,29.320483 4.868925,35.011866 8.9433594,37.251953 c 2.1792586,1.198069 4.6495326,1.131708 6.7929686,0.279297 2.143436,-0.852411 4.011564,-2.468391 5.183594,-4.490234 L 35.898437,7.203125 C 36.707471,5.8072472 36.166063,3.9942475 34.751953,3.2167969 34.057289,2.8348791 33.267043,2.7446704 32.541016,2.9140625 Z m 0.46289,1.9511719 c 0.256347,-0.059118 0.536869,-0.031916 0.783203,0.1035156 0.502288,0.2761484 0.641025,0.7835415 0.38086,1.2324219 L 19.189453,32.039062 c -0.936568,1.615654 -2.493864,2.95695 -4.193359,3.632813 C 13.296599,36.347738 11.505727,36.379329 9.90625,35.5 6.8798114,33.836091 5.2397698,29.216619 7.0917969,26.162109 c 0.2788333,-0.459876 0.6817272,-0.79918 1.0800781,-0.947265 0.3983509,-0.148086 0.7808251,-0.151958 1.2597656,0.111328 0.6704814,0.368621 0.9214484,1.0714 0.6660154,1.720703 -0.2582253,0.656304 -0.4867637,1.406872 -0.3984372,2.240234 0.088326,0.833363 0.6208042,1.719303 1.5292972,2.21875 1.459201,0.802424 3.316411,0.379561 4.242187,-1.001953 L 32.373047,5.2832031 C 32.516329,5.0693925 32.747559,4.924352 33.003906,4.8652344 Z"
     id="path1" />
  <path
     style="color:#000000;fill:#2d2d2d;fill-opacity:0.6;stroke-linejoin:round;-inkscape-stroke:none"
     d="m 31.119141,27.833984 c -2.84164,0 -5.166016,2.324376 -5.166016,5.166016 0,2.84164 2.324405,5.166016 5.166016,5.166016 2.841534,0 5.166015,-2.324376 5.166015,-5.166016 0,-2.84164 -2.324452,-5.166016 -5.166015,-5.166016 z m 0,2 c 1.760632,0 3.166015,1.40526 3.166015,3.166016 0,1.760756 -1.405354,3.166016 -3.166015,3.166016 -1.760785,0 -3.166016,-1.40526 -3.166016,-3.166016 0,-1.760756 1.40526,-3.166016 3.166016,-3.166016 z"
     id="path2" />
  <path
     style="color:#000000;fill:#2d2d2d;fill-opacity:0.6;stroke-linejoin:round;-inkscape-stroke:none"
     d="m 27.552734,11.367188 -1.201172,1.599609 3.333985,2.5 1.199219,-1.599609 z"
     id="path3" />
</svg>
