<?xml version="1.0" encoding="UTF-8" standalone="no"?>
<svg
   width="21"
   height="20"
   viewBox="0 0 21 20"
   fill="none"
   version="1.1"
   id="svg5"
   sodipodi:docname="live-streaming.svg"
   inkscape:version="1.3 (0e150ed, 2023-07-21)"
   xmlns:inkscape="http://www.inkscape.org/namespaces/inkscape"
   xmlns:sodipodi="http://sodipodi.sourceforge.net/DTD/sodipodi-0.dtd"
   xmlns="http://www.w3.org/2000/svg"
   xmlns:svg="http://www.w3.org/2000/svg">
  <defs
     id="defs5" />
  <sodipodi:namedview
     id="namedview5"
     pagecolor="#ffffff"
     bordercolor="#000000"
     borderopacity="0.25"
     inkscape:showpageshadow="2"
     inkscape:pageopacity="0.0"
     inkscape:pagecheckerboard="0"
     inkscape:deskcolor="#d1d1d1"
     inkscape:zoom="11.8"
     inkscape:cx="10.466102"
     inkscape:cy="10"
     inkscape:window-width="1312"
     inkscape:window-height="449"
     inkscape:window-x="0"
     inkscape:window-y="383"
     inkscape:window-maximized="0"
     inkscape:current-layer="svg5" />
  <path
     style="color:#000000;fill:#b31942;-inkscape-stroke:none"
     d="m 10.5,7.8339844 c -1.190686,0 -2.1660156,0.9753544 -2.1660156,2.1660156 0,1.190711 0.9753296,2.166016 2.1660156,2.166016 1.190714,0 2.166016,-0.975302 2.166016,-2.166016 0,-1.1906648 -0.975302,-2.1660156 -2.166016,-2.1660156 z m 0,1 c 0.650284,0 1.166016,0.5158223 1.166016,1.1660156 0,0.650284 -0.515732,1.166016 -1.166016,1.166016 -0.6502321,0 -1.1660156,-0.515728 -1.1660156,-1.166016 0,-0.650197 0.5157835,-1.1660156 1.1660156,-1.1660156 z"
     id="path1" />
  <path
     style="color:#000000;fill:#b31942;stroke-linecap:round;stroke-linejoin:round;-inkscape-stroke:none"
     d="M 6.75,6.1660156 A 0.5,0.5 0 0 0 6.3964844,6.3125 C 5.4453042,7.2636802 5,8.6388894 5,10 c 0,1.361147 0.4452957,2.736346 1.3964844,3.6875 a 0.5,0.5 0 0 0 0.7070312,0 0.5,0.5 0 0 0 0,-0.707031 C 6.388046,12.265025 6,11.13893 6,10 6,8.8611131 6.3880375,7.7350094 7.1035156,7.0195312 a 0.5,0.5 0 0 0 0,-0.7070312 A 0.5,0.5 0 0 0 6.75,6.1660156 Z"
     id="path2" />
  <path
     style="color:#000000;fill:#b31942;stroke-linecap:round;stroke-linejoin:round;-inkscape-stroke:none"
     d="M 4.25,4.5 A 0.5,0.5 0 0 0 3.8964844,4.6464844 C 2.5679177,5.9750511 1.6660156,7.7833392 1.6660156,10 c 0,2.216633 0.9018992,4.024946 2.2304688,5.353516 a 0.5,0.5 0 0 0 0.7070312,0 0.5,0.5 0 0 0 0,-0.707032 C 3.4320877,13.475056 2.6660156,11.949963 2.6660156,10 c 0,-1.949995 0.7660692,-3.4750536 1.9375,-4.6464844 a 0.5,0.5 0 0 0 0,-0.7070312 A 0.5,0.5 0 0 0 4.25,4.5 Z"
     id="path3" />
  <path
     style="color:#000000;fill:#b31942;stroke-linecap:round;stroke-linejoin:round;-inkscape-stroke:none"
     d="M 14.25,6.1660156 A 0.5,0.5 0 0 0 13.896484,6.3125 a 0.5,0.5 0 0 0 0,0.7070312 C 14.611941,7.7350136 15,8.8611211 15,10 c 0,1.138922 -0.388067,2.265021 -1.103516,2.980469 a 0.5,0.5 0 0 0 0,0.707031 0.5,0.5 0 0 0 0.707032,0 C 15.554666,12.73635 16,11.361155 16,10 16,8.6388814 15.554657,7.2636759 14.603516,6.3125 A 0.5,0.5 0 0 0 14.25,6.1660156 Z"
     id="path4" />
  <path
     style="color:#000000;fill:#b31942;stroke-linecap:round;stroke-linejoin:round;-inkscape-stroke:none"
     d="m 16.396484,4.6464844 a 0.5,0.5 0 0 0 0,0.7070312 c 1.171428,1.171428 1.9375,2.6964846 1.9375,4.6464844 0,1.949968 -0.766075,3.475059 -1.9375,4.646484 a 0.5,0.5 0 0 0 0,0.707032 0.5,0.5 0 0 0 0.707032,0 C 18.432088,14.024943 19.333984,12.216628 19.333984,10 c 0,-2.216656 -0.901899,-4.0249461 -2.230468,-5.3535156 a 0.5,0.5 0 0 0 -0.707032,0 z"
     id="path5" />
</svg>
