<?xml version="1.0" encoding="UTF-8" standalone="no"?>
<svg
   width="20"
   height="20"
   viewBox="0 0 20 20"
   fill="none"
   version="1.1"
   id="svg6"
   sodipodi:docname="settings.svg"
   inkscape:version="1.3 (0e150ed, 2023-07-21)"
   xmlns:inkscape="http://www.inkscape.org/namespaces/inkscape"
   xmlns:sodipodi="http://sodipodi.sourceforge.net/DTD/sodipodi-0.dtd"
   xmlns="http://www.w3.org/2000/svg"
   xmlns:svg="http://www.w3.org/2000/svg">
  <defs
     id="defs6" />
  <sodipodi:namedview
     id="namedview6"
     pagecolor="#ffffff"
     bordercolor="#000000"
     borderopacity="0.25"
     inkscape:showpageshadow="2"
     inkscape:pageopacity="0.0"
     inkscape:pagecheckerboard="0"
     inkscape:deskcolor="#d1d1d1"
     inkscape:zoom="11.8"
     inkscape:cx="9.9576271"
     inkscape:cy="10"
     inkscape:window-width="1312"
     inkscape:window-height="449"
     inkscape:window-x="0"
     inkscape:window-y="179"
     inkscape:window-maximized="0"
     inkscape:current-layer="svg6" />
  <path
     style="color:#000000;fill:#2d2d2d;stroke-linecap:square;stroke-linejoin:round;-inkscape-stroke:none"
     d="M 16.25,9.5839844 V 10.416016 H 16.666016 17.5 17.916016 V 9.5839844 H 17.5 16.666016 Z"
     id="path1" />
  <path
     style="color:#000000;fill:#2d2d2d;stroke-linecap:square;stroke-linejoin:round;-inkscape-stroke:none"
     d="M 9.5839844,4.5839844 V 5.4160156 H 10 17.5 17.916016 V 4.5839844 H 17.5 10 Z"
     id="path2" />
  <path
     style="color:#000000;fill:#2d2d2d;stroke-linecap:square;stroke-linejoin:round;-inkscape-stroke:none"
     d="M 2.0839844,9.5839844 V 10.416016 H 2.5 13.333984 13.75 V 9.5839844 H 13.333984 2.5 Z"
     id="path3" />
  <path
     style="color:#000000;fill:#2d2d2d;stroke-linecap:square;stroke-linejoin:round;-inkscape-stroke:none"
     d="M 2.0839844,4.5839844 V 5.4160156 H 2.5 6.6660156 7.0839844 V 4.5839844 H 6.6660156 2.5 Z"
     id="path4" />
  <path
     style="color:#000000;fill:#2d2d2d;-inkscape-stroke:none"
     d="m 15,8.3320313 c -0.915538,0 -1.666016,0.7524304 -1.666016,1.6679687 0,0.915538 0.750478,1.666016 1.666016,1.666016 0.915538,0 1.667969,-0.750478 1.667969,-1.666016 0,-0.9155383 -0.752431,-1.6679687 -1.667969,-1.6679687 z m 0,0.8339843 c 0.465172,0 0.833984,0.3688122 0.833984,0.8339844 0,0.465172 -0.368812,0.832031 -0.833984,0.832031 -0.465172,0 -0.832031,-0.366859 -0.832031,-0.832031 0,-0.4651722 0.366859,-0.8339844 0.832031,-0.8339844 z"
     id="circle4" />
  <path
     style="color:#000000;fill:#2d2d2d;-inkscape-stroke:none"
     d="M 8.3320313,3.3320313 C 7.4164929,3.3320313 6.6660156,4.0844617 6.6660156,5 c 0,0.9155383 0.7504773,1.6660156 1.6660157,1.6660156 C 9.2475696,6.6660156 10,5.9155383 10,5 10,4.0844617 9.2475696,3.3320312 8.3320313,3.3320313 Z m 0,0.8339843 c 0.4651721,0 0.8339843,0.3688122 0.8339843,0.8339844 0,0.4651722 -0.3688122,0.8320312 -0.8339843,0.8320312 C 7.8668591,5.8320312 7.5,5.4651722 7.5,5 7.5,4.5348278 7.8668591,4.1660156 8.3320313,4.1660156 Z"
     id="circle5" />
  <path
     style="color:#000000;fill:#2d2d2d;stroke-linecap:square;stroke-linejoin:round;-inkscape-stroke:none"
     d="m 6.25,14.583984 v 0.832032 H 6.6660156 17.5 17.916016 V 14.583984 H 17.5 6.6660156 Z"
     id="path5" />
  <path
     style="color:#000000;fill:#2d2d2d;stroke-linecap:square;stroke-linejoin:round;-inkscape-stroke:none"
     d="m 2.0839844,14.583984 v 0.832032 H 2.5 3.3339844 3.75 V 14.583984 H 3.3339844 2.5 Z"
     id="path6" />
  <path
     style="color:#000000;fill:#2d2d2d;-inkscape-stroke:none"
     d="m 5,13.333984 c -0.9155383,0 -1.6660156,0.750478 -1.6660156,1.666016 0,0.915538 0.7504773,1.666016 1.6660156,1.666016 0.9155383,0 1.6679688,-0.750478 1.6679687,-1.666016 0,-0.915538 -0.7524304,-1.666016 -1.6679687,-1.666016 z m 0,0.832032 c 0.4651722,0 0.8339844,0.368812 0.8339844,0.833984 0,0.465172 -0.3688122,0.833984 -0.8339844,0.833984 -0.4651722,0 -0.8320313,-0.368812 -0.8320313,-0.833984 0,-0.465172 0.3668591,-0.833984 0.8320313,-0.833984 z"
     id="circle6" />
</svg>
