<?xml version="1.0" encoding="UTF-8" standalone="no"?>
<svg
   width="21"
   height="20"
   viewBox="0 0 21 20"
   fill="none"
   version="1.1"
   id="svg1"
   sodipodi:docname="star.svg"
   inkscape:version="1.3 (0e150ed, 2023-07-21)"
   xmlns:inkscape="http://www.inkscape.org/namespaces/inkscape"
   xmlns:sodipodi="http://sodipodi.sourceforge.net/DTD/sodipodi-0.dtd"
   xmlns="http://www.w3.org/2000/svg"
   xmlns:svg="http://www.w3.org/2000/svg">
  <defs
     id="defs1" />
  <sodipodi:namedview
     id="namedview1"
     pagecolor="#ffffff"
     bordercolor="#000000"
     borderopacity="0.25"
     inkscape:showpageshadow="2"
     inkscape:pageopacity="0.0"
     inkscape:pagecheckerboard="0"
     inkscape:deskcolor="#d1d1d1"
     inkscape:zoom="11.8"
     inkscape:cx="10.466102"
     inkscape:cy="10"
     inkscape:window-width="1312"
     inkscape:window-height="449"
     inkscape:window-x="0"
     inkscape:window-y="383"
     inkscape:window-maximized="0"
     inkscape:current-layer="svg1" />
  <path
     style="color:#000000;fill:#0a3161;stroke-linejoin:round;-inkscape-stroke:none"
     d="M 10.333984,2.1894531 C 9.8602032,2.1894556 9.3849437,2.4247734 9.1445313,2.8964844 L 7.3222656,6.4726562 C 7.273663,6.5680298 7.1838787,6.6335453 7.078125,6.6503906 L 3.1152344,7.2832031 C 2.0706181,7.4495883 1.6338937,8.7920589 2.3808594,9.5410156 l 2.8359375,2.8437504 c 0.075493,0.07569 0.110393,0.181422 0.09375,0.287109 l -0.625,3.970703 c -0.1646696,1.045593 0.9787376,1.874826 1.921875,1.394531 l 3.5742191,-1.820312 c 0.09554,-0.04868 0.207336,-0.04862 0.302734,0 l 3.574219,1.820312 c 0.943158,0.480289 2.086737,-0.348901 1.921875,-1.394531 l -0.625,-3.970703 c -0.01665,-0.105712 0.01828,-0.211436 0.09375,-0.287109 L 18.285156,9.5410156 C 19.032211,8.7920945 18.595403,7.4495867 17.550781,7.2832031 L 13.587891,6.6503906 C 13.482105,6.6335421 13.392389,6.5680936 13.34375,6.4726562 L 11.521484,2.8964844 C 11.281048,2.4247869 10.807766,2.1894507 10.333984,2.1894531 Z m -0.298828,1.1601563 c 0.137495,-0.2697768 0.458177,-0.2678507 0.595703,0.00195 l 1.822266,3.5761719 c 0.193361,0.3794022 0.557902,0.6439461 0.978516,0.7109375 l 3.96289,0.6308594 c 0.298577,0.047556 0.397138,0.3503752 0.183594,0.5644531 l -2.837891,2.8457036 c -0.300327,0.301126 -0.4392,0.728349 -0.373046,1.148437 l 0.625,3.96875 c 0.04714,0.298969 -0.210829,0.48692 -0.480469,0.349609 L 10.9375,15.326172 c -0.379802,-0.193578 -0.829169,-0.19352 -1.2089844,0 l -3.5742187,1.820312 c -0.2696215,0.137306 -0.527559,-0.0506 -0.4804688,-0.349609 l 0.625,-3.96875 c 0.066157,-0.420112 -0.0727,-0.847324 -0.3730469,-1.148437 L 3.0898438,8.8339844 C 2.8763704,8.619942 2.9748752,8.3170859 3.2734375,8.2695313 L 7.234375,7.6386719 C 7.6549608,7.5716773 8.0195135,7.3072004 8.2128906,6.9277344 Z"
     id="path1" />
</svg>
