<?xml version="1.0" encoding="UTF-8" standalone="no"?>
<svg
   width="41"
   height="41"
   viewBox="0 0 41 41"
   fill="none"
   version="1.1"
   id="svg2"
   sodipodi:docname="tennis-ball.svg"
   inkscape:version="1.3 (0e150ed, 2023-07-21)"
   xmlns:inkscape="http://www.inkscape.org/namespaces/inkscape"
   xmlns:sodipodi="http://sodipodi.sourceforge.net/DTD/sodipodi-0.dtd"
   xmlns="http://www.w3.org/2000/svg"
   xmlns:svg="http://www.w3.org/2000/svg">
  <defs
     id="defs2" />
  <sodipodi:namedview
     id="namedview2"
     pagecolor="#ffffff"
     bordercolor="#000000"
     borderopacity="0.25"
     inkscape:showpageshadow="2"
     inkscape:pageopacity="0.0"
     inkscape:pagecheckerboard="0"
     inkscape:deskcolor="#d1d1d1"
     inkscape:zoom="5.7560976"
     inkscape:cx="20.413136"
     inkscape:cy="20.5"
     inkscape:window-width="1312"
     inkscape:window-height="449"
     inkscape:window-x="0"
     inkscape:window-y="383"
     inkscape:window-maximized="0"
     inkscape:current-layer="svg2" />
  <path
     style="color:#000000;fill:#2d2d2d;fill-opacity:0.6;-inkscape-stroke:none"
     d="m 20.857422,2.8339844 c -9.745225,0 -17.6660157,7.9207916 -17.6660157,17.6660156 -1e-7,9.745036 7.9207827,17.666016 17.6660157,17.666016 9.745139,0 17.666015,-7.920971 17.666015,-17.666016 0,-9.745233 -7.920884,-17.6660156 -17.666015,-17.6660156 z m 0,2 c 8.664251,0 15.666015,7.0016666 15.666015,15.6660156 0,8.664137 -7.001772,15.666016 -15.666015,15.666016 -8.664349,0 -15.6660157,-7.00187 -15.6660158,-15.666016 0,-8.664357 7.0016588,-15.6660156 15.6660158,-15.6660156 z"
     id="path1" />
  <path
     style="color:#000000;fill:#2d2d2d;fill-opacity:0.6;-inkscape-stroke:none"
     d="m 9.8535156,8.0839844 -1.3242187,1.5 c 6.1624641,5.4374536 6.1954331,16.3654016 0,21.8320316 l 1.3242187,1.5 c 7.1709134,-6.327359 7.1378824,-18.533917 0,-24.8320316 z m 22.0097654,0 c -7.137903,6.2981136 -7.170934,18.5046736 0,24.8320316 l 1.322266,-1.5 c -6.195453,-5.466631 -6.162484,-16.394577 0,-21.8320316 z"
     id="path2" />
</svg>
