<?xml version="1.0" encoding="UTF-8" standalone="no"?>
<svg
   width="20"
   height="20"
   viewBox="0 0 20 20"
   fill="none"
   version="1.1"
   id="svg2"
   sodipodi:docname="trade-up.svg"
   inkscape:version="1.3 (0e150ed, 2023-07-21)"
   xmlns:inkscape="http://www.inkscape.org/namespaces/inkscape"
   xmlns:sodipodi="http://sodipodi.sourceforge.net/DTD/sodipodi-0.dtd"
   xmlns="http://www.w3.org/2000/svg"
   xmlns:svg="http://www.w3.org/2000/svg">
  <defs
     id="defs2" />
  <sodipodi:namedview
     id="namedview2"
     pagecolor="#ffffff"
     bordercolor="#000000"
     borderopacity="0.25"
     inkscape:showpageshadow="2"
     inkscape:pageopacity="0.0"
     inkscape:pagecheckerboard="0"
     inkscape:deskcolor="#d1d1d1"
     inkscape:zoom="11.8"
     inkscape:cx="9.9576271"
     inkscape:cy="9.9576271"
     inkscape:window-width="1536"
     inkscape:window-height="850"
     inkscape:window-x="0"
     inkscape:window-y="383"
     inkscape:window-maximized="0"
     inkscape:current-layer="svg2" />
  <path
     style="color:#000000;fill:#065d02;stroke-linecap:round;stroke-linejoin:round;-inkscape-stroke:none"
     d="m 12.5,6.0410156 a 0.625,0.625 0 0 0 -0.625,0.625 0.625,0.625 0 0 0 0.625,0.625 h 3.541016 v 3.5429684 a 0.625,0.625 0 0 0 0.625,0.625 0.625,0.625 0 0 0 0.625,-0.625 V 6.6660156 a 0.6250625,0.6250625 0 0 0 -0.625,-0.625 z"
     id="path1" />
  <path
     style="color:#000000;fill:#065d02;stroke-linecap:round;stroke-linejoin:round;-inkscape-stroke:none"
     d="M 16.224609,6.2246094 10.833984,11.615234 7.9433594,8.7246094 a 0.6250625,0.6250625 0 0 0 -0.8847657,0 L 2.8925781,12.890625 a 0.625,0.625 0 0 0 0,0.884766 0.625,0.625 0 0 0 0.8828125,0 L 7.5,10.050781 l 2.892578,2.890625 a 0.6250625,0.6250625 0 0 0 0.882813,0 l 5.833984,-5.832031 a 0.625,0.625 0 0 0 0,-0.8847656 0.625,0.625 0 0 0 -0.884766,0 z"
     id="path2" />
</svg>
