<?xml version="1.0" encoding="UTF-8" standalone="no"?>
<svg
   width="20"
   height="20"
   viewBox="0 0 20 20"
   fill="none"
   version="1.1"
   id="svg2"
   sodipodi:docname="trade-down.svg"
   inkscape:version="1.3 (0e150ed, 2023-07-21)"
   xmlns:inkscape="http://www.inkscape.org/namespaces/inkscape"
   xmlns:sodipodi="http://sodipodi.sourceforge.net/DTD/sodipodi-0.dtd"
   xmlns="http://www.w3.org/2000/svg"
   xmlns:svg="http://www.w3.org/2000/svg">
  <defs
     id="defs2" />
  <sodipodi:namedview
     id="namedview2"
     pagecolor="#ffffff"
     bordercolor="#000000"
     borderopacity="0.25"
     inkscape:showpageshadow="2"
     inkscape:pageopacity="0.0"
     inkscape:pagecheckerboard="0"
     inkscape:deskcolor="#d1d1d1"
     inkscape:zoom="11.8"
     inkscape:cx="9.9576271"
     inkscape:cy="10"
     inkscape:window-width="1312"
     inkscape:window-height="449"
     inkscape:window-x="0"
     inkscape:window-y="383"
     inkscape:window-maximized="0"
     inkscape:current-layer="svg2" />
  <path
     style="color:#000000;fill:#5c1202;stroke-linecap:round;stroke-linejoin:round;-inkscape-stroke:none"
     d="m 16.666016,8.5410156 a 0.625,0.625 0 0 0 -0.625,0.625 V 12.708984 H 12.5 a 0.625,0.625 0 0 0 -0.625,0.625 0.625,0.625 0 0 0 0.625,0.625 h 4.166016 a 0.6250625,0.6250625 0 0 0 0.625,-0.625 V 9.1660156 a 0.625,0.625 0 0 0 -0.625,-0.625 z"
     id="path1" />
  <path
     style="color:#000000;fill:#5c1202;stroke-linecap:round;stroke-linejoin:round;-inkscape-stroke:none"
     d="m 3.3339844,6.0410156 a 0.625,0.625 0 0 0 -0.4414063,0.1835938 0.625,0.625 0 0 0 0,0.8847656 l 4.1660156,4.166016 a 0.6250625,0.6250625 0 0 0 0.8847657,0 l 2.8906246,-2.8925785 5.390625,5.3925785 a 0.625,0.625 0 0 0 0.884766,0 0.625,0.625 0 0 0 0,-0.884766 L 11.275391,7.0585937 a 0.6250625,0.6250625 0 0 0 -0.882813,0 L 7.5,9.9492188 3.7753906,6.2246094 A 0.625,0.625 0 0 0 3.3339844,6.0410156 Z"
     id="path2" />
</svg>
